<?xml version="1.0" encoding="UTF-8"?>
<svg version="1.1" xmlns="http://www.w3.org/2000/svg" width="512" height="512">
<path d="M0 0 C1.01790619 0.00215515 2.03581238 0.0043103 3.08456421 0.00653076 C17.69363523 0.05620146 32.02575853 0.30709809 46.375 3.3125 C47.34985352 3.51117676 48.32470703 3.70985352 49.32910156 3.91455078 C97.7109774 14.03517194 141.69928269 35.9516877 177.375 70.3125 C178.3640332 71.26068604 178.3640332 71.26068604 179.37304688 72.22802734 C188.86130305 81.37247479 197.6012044 90.66984009 205.375 101.3125 C206.23306152 102.46355017 207.09113451 103.61459177 207.94921875 104.765625 C213.98736829 112.95680614 219.34595521 121.47054105 224.375 130.3125 C224.73948242 130.94430176 225.10396484 131.57610352 225.47949219 132.22705078 C247.08534998 169.97532572 256.85198095 212.74189997 256.6875 255.9375 C256.68534485 256.95540619 256.6831897 257.97331238 256.68096924 259.02206421 C256.63129854 273.63113523 256.38040191 287.96325853 253.375 302.3125 C253.07698486 303.77478027 253.07698486 303.77478027 252.77294922 305.26660156 C242.65232806 353.6484774 220.7358123 397.63678269 186.375 433.3125 C185.74287598 433.97185547 185.11075195 434.63121094 184.45947266 435.31054688 C175.31502521 444.79880305 166.01765991 453.5387044 155.375 461.3125 C154.22394983 462.17056152 153.07290823 463.02863451 151.921875 463.88671875 C143.73224019 469.92427396 135.22961724 475.30707302 126.375 480.3125 C125.66778809 480.7146875 124.96057617 481.116875 124.23193359 481.53125 C101.09654164 494.5566741 75.92537591 503.30551461 49.9375 508.625 C49.21860596 508.77235596 48.49971191 508.91971191 47.7590332 509.0715332 C33.08339502 511.86090125 18.55831162 512.66142619 3.64770508 512.62817383 C0.70811513 512.6250221 -2.2304558 512.64854926 -5.16992188 512.67382812 C-18.54306192 512.71848737 -31.43916711 511.51301542 -44.625 509.3125 C-46.33055054 509.03031616 -46.33055054 509.03031616 -48.07055664 508.74243164 C-91.33802759 500.97044532 -132.38793216 480.98345309 -165.625 452.3125 C-166.37007813 451.67828125 -167.11515625 451.0440625 -167.8828125 450.390625 C-181.38779833 438.57948485 -194.05918743 425.82889772 -204.625 411.3125 C-205.48149066 410.16255169 -206.33826433 409.01281411 -207.1953125 407.86328125 C-213.23534209 399.67315742 -218.61867614 391.16870382 -223.625 382.3125 C-224.0271875 381.60528809 -224.429375 380.89807617 -224.84375 380.16943359 C-237.8691741 357.03404164 -246.61801461 331.86287591 -251.9375 305.875 C-252.08485596 305.15610596 -252.23221191 304.43721191 -252.3840332 303.6965332 C-255.35789088 288.05024391 -255.99800362 272.57681954 -255.9375 256.6875 C-255.93534485 255.66959381 -255.9331897 254.65168762 -255.93096924 253.60293579 C-255.88129854 238.99386477 -255.63040191 224.66174147 -252.625 210.3125 C-252.42632324 209.33764648 -252.22764648 208.36279297 -252.02294922 207.35839844 C-241.90232806 158.9765226 -219.9858123 114.98821731 -185.625 79.3125 C-184.99287598 78.65314453 -184.36075195 77.99378906 -183.70947266 77.31445312 C-174.56502521 67.82619695 -165.26765991 59.0862956 -154.625 51.3125 C-153.47394983 50.45443848 -152.32290823 49.59636549 -151.171875 48.73828125 C-142.98224019 42.70072604 -134.47961724 37.31792698 -125.625 32.3125 C-124.91778809 31.9103125 -124.21057617 31.508125 -123.48193359 31.09375 C-100.34654164 18.0683259 -75.17537591 9.31948539 -49.1875 4 C-48.46860596 3.85264404 -47.74971191 3.70528809 -47.0090332 3.5534668 C-31.36274391 0.57960912 -15.88931954 -0.06050362 0 0 Z " fill="#EC584A" transform="translate(255.625,-0.3125)"/>
<path d="M0 0 C1.55070483 -0.00379403 3.10140625 -0.00930293 4.65209961 -0.01637268 C8.81937909 -0.03019995 12.98623982 -0.01924987 17.15349555 -0.00266147 C21.53786435 0.01130772 25.92221175 0.00471585 30.30659485 0.00120544 C37.66230935 -0.00148652 45.01785972 0.01189417 52.37353516 0.03515625 C60.85335025 0.06178931 69.33289168 0.06349984 77.81273431 0.05176789 C86.00654232 0.04095693 94.20025225 0.04720124 102.39405251 0.06132317 C105.86546995 0.06705126 109.33681485 0.06702556 112.80823326 0.06225777 C116.9001382 0.05745491 120.99174664 0.06772523 125.08359528 0.08921242 C126.57704227 0.0947346 128.07051802 0.09528809 129.56396675 0.09025955 C146.9426336 0.03911932 162.98070103 4.5332446 175.73950195 16.93530273 C188.37370739 31.34619332 190.6204511 46.89247164 190.52075195 65.31420898 C190.5234554 67.09912323 190.52734485 68.88403603 190.53234863 70.66894531 C190.53820366 74.38710729 190.52981119 78.1048816 190.51098633 81.82299805 C190.48819912 86.54992038 190.50134389 91.27593375 190.52527618 96.00282288 C190.53984324 99.68183031 190.53507869 103.36062802 190.52476501 107.03964233 C190.52212773 108.78087476 190.52525974 110.52212726 190.53468323 112.26333618 C190.61144583 130.42547925 187.14545981 146.75107186 174.23950195 160.43920898 C162.61596842 171.09411473 148.28860151 175.70875491 132.83422852 175.54833984 C130.72031845 175.53556849 128.60640637 175.52312764 126.49249268 175.51097107 C125.37467659 175.50305479 124.2568605 175.49513851 123.1051712 175.48698235 C115.93123754 175.44480715 108.75713699 175.45671036 101.58310318 175.45687008 C95.28228401 175.4538708 88.98245369 175.43311581 82.68188477 175.375 C76.5807596 175.31977712 70.48129494 175.31337264 64.37999725 175.33969307 C62.05961017 175.34092601 59.73914181 175.32448468 57.41901398 175.28977776 C44.88413056 174.46055686 44.88413056 174.46055686 33.60031128 178.70283508 C31.32238735 181.20236058 29.6428261 183.56445602 27.98950195 186.50170898 C27.17739258 187.4672168 26.3652832 188.43272461 25.52856445 189.42749023 C24.89692383 190.21510742 24.2652832 191.00272461 23.61450195 191.81420898 C20.28932503 195.92143971 16.91301248 199.97666672 13.48950195 204.00170898 C10.04759971 208.04921402 6.65005668 212.12570694 3.30200195 216.25170898 C-0.66523957 221.1284084 -4.78955236 225.84371715 -9.01049805 230.50170898 C-12.88549805 229.62670898 -12.88549805 229.62670898 -14.01049805 228.50170898 C-14.10402968 226.81368913 -14.12794595 225.12175691 -14.12402344 223.43115234 C-14.12394791 222.35010727 -14.12387238 221.26906219 -14.12379456 220.15525818 C-14.11863327 218.97923538 -14.11347198 217.80321259 -14.1081543 216.59155273 C-14.10673935 215.39438126 -14.1053244 214.19720978 -14.10386658 212.96376038 C-14.09824784 209.12221832 -14.08569216 205.28073356 -14.07299805 201.43920898 C-14.06798546 198.84220461 -14.06342214 196.24519934 -14.05932617 193.64819336 C-14.04827232 187.2660122 -14.03151597 180.88386468 -14.01049805 174.50170898 C-15.27200684 174.35241943 -16.53351563 174.20312988 -17.83325195 174.04931641 C-30.67608952 172.52946853 -42.91697575 165.52625838 -51.01049805 155.50170898 C-58.60539654 144.32287245 -62.13806879 133.90326715 -62.1875 120.40771484 C-62.1940712 119.61817413 -62.2006424 118.82863342 -62.20741272 118.01516724 C-62.227037 115.41562788 -62.23878618 112.8161461 -62.2487793 110.21655273 C-62.25285482 109.32257845 -62.25693035 108.42860416 -62.26112938 107.50753975 C-62.28194746 102.7722815 -62.29626554 98.03705183 -62.30566406 93.30175781 C-62.31669808 88.44233464 -62.35107545 83.58337317 -62.39083576 78.72411251 C-62.41714426 74.96026331 -62.42536861 71.19652161 -62.42894554 67.43258858 C-62.4337776 65.64305071 -62.4452934 63.85351653 -62.46398354 62.06406975 C-62.63378237 44.72459543 -59.64156977 29.51619167 -47.38549805 16.25170898 C-33.59637319 3.52328604 -18.28031316 -0.12945731 0 0 Z " fill="#FDFCFC" transform="translate(154.010498046875,122.498291015625)"/>
<path d="M0 0 C4.47992337 -0.10017029 8.95922384 -0.17206949 13.43994141 -0.21972656 C14.95861185 -0.23962882 16.47720788 -0.26676104 17.99560547 -0.30175781 C33.16468474 -0.64218599 45.02001452 2.06419887 56.6875 12.375 C67.95766282 25.1681578 70.31952727 36.37244582 70.30078125 53.18359375 C70.30467749 54.64893208 70.30901404 56.1142693 70.31376648 57.5796051 C70.32119067 60.63814977 70.32096497 63.69657893 70.31567383 66.75512695 C70.30988037 70.64955275 70.32682545 74.54350276 70.3500185 78.43785 C70.36484063 81.46042077 70.36561617 84.48287912 70.36250877 87.50547981 C70.36301761 88.94021612 70.36817186 90.37495946 70.37832069 91.80965996 C70.47621454 107.57912959 66.94382215 119.32011461 56.10546875 130.9921875 C49.26552925 137.51487563 41.1864051 140.51605427 32 142 C31.96241577 143.94604126 31.96241577 143.94604126 31.92407227 145.93139648 C31.83018248 150.72658856 31.72991751 155.5216295 31.62768555 160.31665039 C31.58426666 162.39539057 31.54259688 164.47416803 31.50268555 166.55297852 C31.44515079 169.53413145 31.38140881 172.51509549 31.31640625 175.49609375 C31.29133751 176.89921059 31.29133751 176.89921059 31.26576233 178.33067322 C31.24581711 179.19149002 31.22587189 180.05230682 31.20532227 180.93920898 C31.18977798 181.70087875 31.1742337 182.46254852 31.15821838 183.24729919 C31 185 31 185 30 186 C27.68359375 186.33984375 27.68359375 186.33984375 25 186 C23.03515625 184.19140625 23.03515625 184.19140625 21.0625 181.5625 C20.28648437 180.55832031 19.51046875 179.55414063 18.7109375 178.51953125 C18.28264648 177.95830566 17.85435547 177.39708008 17.41308594 176.81884766 C14.75362281 173.39573081 11.95804806 170.08329771 9.1875 166.75 C8.09605528 165.43361743 7.00626021 164.11586566 5.91796875 162.796875 C5.05149216 161.78578674 5.05149216 161.78578674 4.16751099 160.75427246 C2.49300878 158.62646996 1.10553408 156.59652349 -0.30448914 154.30455017 C-5.72688195 145.9183205 -5.72688195 145.9183205 -14.39094543 141.66659546 C-19.59603537 141.05124576 -24.77448461 141.25941825 -30 141.45703125 C-31.92703827 141.47276787 -33.85414814 141.48123535 -35.78125 141.48283386 C-40.82931094 141.50364889 -45.87165883 141.61038046 -50.91796875 141.73962402 C-58.98951716 141.93047931 -67.06337346 141.98321556 -75.13671875 142.04761314 C-77.93596294 142.08126149 -80.73278943 142.14786266 -83.53125 142.22090149 C-98.62932931 142.52718951 -110.10604664 139.85977274 -121.6875 129.625 C-128.05386396 122.39831658 -132.5944936 116.01638037 -133.57421875 106.24609375 C-133.65631592 105.44743896 -133.73841309 104.64878418 -133.82299805 103.82592773 C-133.88140869 103.22337158 -133.93981934 102.62081543 -134 102 C-132.97650955 101.99635437 -131.9530191 101.99270874 -130.89851379 101.98895264 C-121.20443798 101.95184592 -111.51067523 101.89390376 -101.81683826 101.81609726 C-96.8343413 101.77676095 -91.85201741 101.74450502 -86.86938477 101.72900391 C-82.05159088 101.71374553 -77.23427327 101.67913933 -72.41669273 101.63169098 C-70.5881536 101.61697119 -68.75954644 101.60896445 -66.93094826 101.60811615 C-48.35784898 101.59085089 -31.17201531 97.87533577 -17.31640625 84.53125 C-9.21126683 75.67436914 -5.18684233 66.37962583 -2 55 C-1.8204628 54.37889343 -1.6409256 53.75778687 -1.45594788 53.11785889 C-0.92697223 50.66078906 -0.83822761 48.37770752 -0.79467773 45.86425781 C-0.77473251 44.84350159 -0.75478729 43.82274536 -0.73423767 42.77105713 C-0.71752518 41.67613953 -0.70081268 40.58122192 -0.68359375 39.453125 C-0.6524221 37.76361725 -0.6524221 37.76361725 -0.62062073 36.03997803 C-0.55525667 32.44338051 -0.49630115 28.84671023 -0.4375 25.25 C-0.3943023 22.8111904 -0.3506876 20.37238816 -0.30664062 17.93359375 C-0.1995887 11.955806 -0.09779783 5.97794593 0 0 Z " fill="#FDFCFC" transform="translate(350,202)"/>
<path d="M0 0 C4.97374215 2.87417067 8.40733379 7.06809571 10.625 12.375 C11.59720916 18.96555474 11.05591212 24.20376295 7.12890625 29.65234375 C3.75842658 33.51307501 0.16073392 37.08759257 -5.09765625 37.68359375 C-12.13577111 37.95524029 -16.9473658 37.58407716 -22.5625 33.125 C-27.56112854 28.29873796 -28.62270285 24.75285826 -28.9375 17.9375 C-28.72109855 11.85731724 -27.63587934 7.78137278 -23.375 3.375 C-16.72614839 -2.76240149 -8.24175691 -3.68546488 0 0 Z " fill="#F16B49" transform="translate(227.375,192.625)"/>
<path d="M0 0 C4.98338981 2.87974575 8.38452439 7.0686104 10.625 12.375 C11.62493227 19.21174624 10.51423705 24.68683246 6.625 30.375 C2.62221212 35.22048006 -0.70972899 36.95900298 -6.921875 37.6640625 C-12.71389992 37.96806381 -16.92503454 37.46756701 -21.6484375 33.96875 C-26.84139844 29.17524759 -28.68707592 24.98990539 -29 17.875 C-28.68707592 10.76009461 -26.84139844 6.57475241 -21.6484375 1.78125 C-15.16553249 -3.02090186 -7.29308696 -3.26124832 0 0 Z " fill="#F16B49" transform="translate(300.375,192.625)"/>
<path d="M0 0 C4.62553535 2.67694582 7.51261668 6.4136263 9.5625 11.3125 C10.46423068 18.65216832 10.08843168 25.26819124 5.5625 31.3125 C-0.21524497 36.66748314 -4.29301797 37.88865576 -12.06640625 37.75 C-18.10000301 36.96696079 -22.06621548 34.21216857 -25.875 29.5546875 C-29.24830953 23.95593071 -29.40133368 17.64991966 -28.4375 11.3125 C-26.47418309 5.82064118 -22.8079614 1.97978512 -17.7421875 -0.83984375 C-11.83440264 -3.012707 -5.69475861 -2.58756257 0 0 Z " fill="#F16B48" transform="translate(154.4375,192.6875)"/>
<path d="M0 0 C3.12291165 1.68012647 5.39164837 3.78329674 7 7 C7.5259826 10.75701858 7.82762888 14.42750513 6.0234375 17.85546875 C2.80040778 21.85953941 0.13835525 23.7210841 -4.875 24.375 C-9.82113103 23.78146428 -12.77776994 21.50741708 -15.875 17.6875 C-17.35117243 14.16108808 -17.46618895 11.79611 -17 8 C-12.834109 0.38647507 -8.33718013 -1.30753912 0 0 Z " fill="#FDFAFA" transform="translate(296,199)"/>
<path d="M0 0 C3.12291165 1.68012647 5.39164837 3.78329674 7 7 C7.5259826 10.75701858 7.82762888 14.42750513 6.0234375 17.85546875 C2.80040778 21.85953941 0.13835525 23.7210841 -4.875 24.375 C-9.82113103 23.78146428 -12.77776994 21.50741708 -15.875 17.6875 C-17.35117243 14.16108808 -17.46618895 11.79611 -17 8 C-12.834109 0.38647507 -8.33718013 -1.30753912 0 0 Z " fill="#FDFAF9" transform="translate(223,199)"/>
<path d="M0 0 C3.50252011 2.04313673 5.77361702 4.09787233 7 8 C7.46931049 12.2237944 7.28387834 14.45327135 5.3125 18.25 C2.18596768 21.96803843 -0.09874344 23.71683413 -4.9375 24.4375 C-9.82797655 23.73886049 -12.79929923 21.48086428 -15.875 17.6875 C-17.35117243 14.16108808 -17.46618895 11.79611 -17 8 C-12.77551307 0.27938595 -8.38374316 -1.09819 0 0 Z " fill="#FDF9F8" transform="translate(150,199)"/>
</svg>
